Coordinates
version=1
nRows=5
nColumns=46
inDegrees=yes

Units are S.I. units (second, meters, Newtons, ...)
Angles are in degrees.

endheader
time	pelvis_tilt	pelvis_list	pelvis_rotation	pelvis_tx	pelvis_ty	pelvis_tz	bb_angle	bb_tx	bb_ty	bb_tz	hip_flexion_r	hip_adduction_r	hip_rotation_r	knee_angle_r	knee_angle_r_beta	ankle_angle_r	subtalar_angle_r	mtp_angle_r	crank_angle_r	hip_flexion_l	hip_adduction_l	hip_rotation_l	knee_angle_l	knee_angle_l_beta	ankle_angle_l	subtalar_angle_l	mtp_angle_l	crank_angle_l	lumbar_extension	lumbar_bending	lumbar_rotation	arm_flex_r	arm_add_r	arm_rot_r	elbow_flex_r	pro_sup_r	wrist_flex_r	wrist_dev_r	arm_flex_l	arm_add_l	arm_rot_l	elbow_flex_l	pro_sup_l	wrist_flex_l	wrist_dev_l
      5.00000000	    -18.54302287	      2.65832732	     20.28594808	      0.36390052	      1.23200893	     -0.25587833	      0.00000000	      0.50000000	      0.00000000	      0.25000000	     29.94402255	     -8.59060787	      0.51066005	     59.28431245	      1.03470645	    -36.24318993	     -8.88339135	      0.00000000	      0.00000000	     50.54819017	      9.61374474	      5.70703295	     62.71653908	      1.09461010	     11.32162016	     -3.80320501	      0.00000000	      0.00000000	    -67.43042370	      5.74864978	     -7.28933791	     44.34743717	    -16.85108524	      7.99175904	     81.24928051	     51.15857177	      0.00000000	      0.00000000	     61.07056456	    -11.34949408	     32.98272231	     74.80894626	     56.66773836	      0.00000000	      0.00000000
      5.00500000	    -18.58850462	      1.84065735	     20.29286988	      0.36368246	      1.23066393	     -0.25569181	      0.00000000	      0.50000000	      0.00000000	      0.25000000	     31.07600157	     -7.97891718	     -0.09589580	     61.67530860	      1.07643720	    -34.69065081	     -9.66230256	      0.00000000	      0.00000000	     49.59813566	      8.84506195	      6.29099988	     60.36845809	      1.05362836	     10.51077368	     -3.17872336	      0.00000000	      0.00000000	    -67.37873328	      6.03152698	     -7.03451933	     44.54848652	    -16.90037675	      8.24617668	     81.22598548	     51.18277934	      0.00000000	      0.00000000	     60.90128428	    -11.33120269	     32.75888910	     75.15103901	     56.69081666	      0.00000000	      0.00000000
      5.01000000	    -18.77355259	      1.05904007	     20.26989798	      0.36327153	      1.22875667	     -0.25554477	      0.00000000	      0.50000000	      0.00000000	      0.25000000	     32.43959334	     -7.50076839	     -0.70621736	     64.22225501	      1.12088980	    -32.87168725	    -10.36027149	      0.00000000	      0.00000000	     48.88544397	      8.12969519	      6.82154374	     58.21173506	      1.01598644	      9.59190438	     -2.79239884	      0.00000000	      0.00000000	    -67.12649565	      6.28496075	     -6.91078991	     44.74064004	    -16.94764188	      8.80030520	     81.18869153	     51.23775208	      0.00000000	      0.00000000	     60.46419783	    -11.43457062	     32.24319905	     75.78660999	     56.72473514	      0.00000000	      0.00000000
      5.01500000	    -19.10389962	      0.31020950	     20.07161858	      0.36281326	      1.22657586	     -0.25542657	      0.00000000	      0.50000000	      0.00000000	      0.25000000	     34.04296625	     -7.10029760	     -1.18032237	     66.80947706	      1.16604535	    -30.91047626	    -10.76719364	      0.00000000	      0.00000000	     48.27243243	      7.39783596	      7.19761416	     56.00690167	      0.97750484	      8.51882755	     -2.33973224	      0.00000000	      0.00000000	    -66.64582048	      6.81308672	     -9.12571696	     47.00696681	    -15.28624639	     12.72909600	     78.77221114	     51.27617901	      0.00000000	      0.00000000	     57.63277474	    -13.91102369	     27.91148618	     80.50608769	     56.88318337	      0.00000000	      0.00000000
      5.02000000	    -19.09640280	     -0.44859714	     19.81594171	      0.36277056	      1.22475418	     -0.25498826	      0.00000000	      0.50000000	      0.00000000	      0.25000000	     35.19945283	     -6.51291928	     -1.76652302	     69.23603768	      1.20839682	    -28.99990867	    -11.73431994	      0.00000000	      0.00000000	     47.27763731	      6.43025341	      7.46470421	     53.85342432	      0.93991957	      7.63832079	     -1.91662121	      0.00000000	      0.00000000	    -66.49974973	      6.93415994	     -8.78571051	     47.15705112	    -15.20667568	     12.92490927	     78.71407398	     51.28872209	      0.00000000	      0.00000000	     57.46144562	    -14.05908369	     27.78047936	     80.70275973	     56.89557376	      0.00000000	      0.00000000
